<svg width="17" height="17" viewBox="0 0 17 17" fill="none" xmlns="http://www.w3.org/2000/svg">
<path d="M15.625 6.87501H0.625C0.45924 6.87501 0.300268 6.94086 0.183058 7.05807C0.065848 7.17528 0 7.33425 0 7.50001C0.0027461 8.98635 0.411791 10.4437 1.1829 11.7143C1.95401 12.985 3.05783 14.0207 4.375 14.7094V15C4.375 15.3315 4.5067 15.6495 4.74112 15.8839C4.97554 16.1183 5.29348 16.25 5.625 16.25H10.625C10.9565 16.25 11.2745 16.1183 11.5089 15.8839C11.7433 15.6495 11.875 15.3315 11.875 15V14.7094C13.1922 14.0207 14.296 12.985 15.0671 11.7143C15.8382 10.4437 16.2473 8.98635 16.25 7.50001C16.25 7.33425 16.1842 7.17528 16.0669 7.05807C15.9497 6.94086 15.7908 6.87501 15.625 6.87501ZM10.9891 13.75C10.8804 13.7999 10.7883 13.88 10.7238 13.9807C10.6593 14.0813 10.625 14.1984 10.625 14.318V15H5.625V14.3195C5.62531 14.1997 5.59115 14.0823 5.52661 13.9813C5.46206 13.8803 5.36984 13.8 5.26094 13.75C4.16181 13.2442 3.21506 12.4582 2.51571 11.4709C1.81636 10.4836 1.38901 9.32969 1.27656 8.12501H14.9711C14.8589 9.32944 14.4319 10.4832 13.7329 11.4705C13.034 12.4578 12.0878 13.2439 10.9891 13.75ZM4.51328 2.42188C4.93125 1.90157 5.03437 1.55001 4.99141 1.39532C4.95859 1.27892 4.80312 1.21876 4.80156 1.21876C4.66009 1.17227 4.53986 1.07678 4.46254 0.949513C4.38522 0.822241 4.35588 0.671543 4.37982 0.52456C4.40375 0.377577 4.47938 0.243969 4.59308 0.1478C4.70678 0.0516308 4.85108 -0.000779422 5 8.7621e-06C5.06303 8.25596e-05 5.1257 0.00956199 5.18594 0.0281338C5.26406 0.0523526 5.96016 0.28829 6.18516 1.02501C6.37734 1.65548 6.14219 2.38829 5.48672 3.20392C5.06875 3.72423 4.96563 4.07579 5.00859 4.23048C5.04141 4.34688 5.19375 4.40548 5.19531 4.40626C5.33653 4.45267 5.45657 4.5479 5.53391 4.67484C5.61124 4.80178 5.6408 4.95214 5.61728 5.09891C5.59376 5.24568 5.5187 5.37926 5.40557 5.47568C5.29244 5.5721 5.14865 5.62505 5 5.62501C4.93697 5.62494 4.8743 5.61546 4.81406 5.59688C4.73594 5.57267 4.03984 5.33673 3.81484 4.60001C3.62266 3.96954 3.85781 3.23673 4.51328 2.42188ZM7.63828 2.42188C8.05625 1.90157 8.15937 1.55001 8.11641 1.39532C8.08359 1.27892 7.92812 1.21876 7.92656 1.21876C7.78509 1.17227 7.66486 1.07678 7.58754 0.949513C7.51022 0.822241 7.48088 0.671543 7.50482 0.52456C7.52875 0.377577 7.60438 0.243969 7.71808 0.1478C7.83178 0.0516308 7.97608 -0.000779422 8.125 8.7621e-06C8.18803 8.25596e-05 8.2507 0.00956199 8.31094 0.0281338C8.38906 0.0523526 9.08516 0.28829 9.31016 1.02501C9.50234 1.65548 9.26719 2.38829 8.61172 3.20392C8.19375 3.72423 8.09063 4.07579 8.13359 4.23048C8.16641 4.34688 8.31875 4.40548 8.32031 4.40626C8.46153 4.45267 8.58157 4.5479 8.65891 4.67484C8.73624 4.80178 8.7658 4.95214 8.74228 5.09891C8.71876 5.24568 8.6437 5.37926 8.53057 5.47568C8.41744 5.5721 8.27365 5.62505 8.125 5.62501C8.06197 5.62494 7.9993 5.61546 7.93906 5.59688C7.86094 5.57267 7.16484 5.33673 6.93984 4.60001C6.74766 3.96954 6.98281 3.23673 7.63828 2.42188ZM10.7633 2.42188C11.1813 1.90157 11.2844 1.55001 11.2414 1.39532C11.2086 1.27892 11.0531 1.21876 11.0516 1.21876C10.9101 1.17227 10.7899 1.07678 10.7125 0.949513C10.6352 0.822241 10.6059 0.671543 10.6298 0.52456C10.6537 0.377577 10.7294 0.243969 10.8431 0.1478C10.9568 0.0516308 11.1011 -0.000779422 11.25 8.7621e-06C11.313 8.25596e-05 11.3757 0.00956199 11.4359 0.0281338C11.5141 0.0523526 12.2102 0.28829 12.4352 1.02501C12.6273 1.65548 12.3922 2.38829 11.7367 3.20392C11.3187 3.72423 11.2156 4.07579 11.2586 4.23048C11.2914 4.34688 11.4438 4.40548 11.4453 4.40626C11.5865 4.45267 11.7066 4.5479 11.7839 4.67484C11.8612 4.80178 11.8908 4.95214 11.8673 5.09891C11.8438 5.24568 11.7687 5.37926 11.6556 5.47568C11.5424 5.5721 11.3986 5.62505 11.25 5.62501C11.187 5.62494 11.1243 5.61546 11.0641 5.59688C10.9859 5.57267 10.2898 5.33673 10.0648 4.60001C9.87266 3.96954 10.1078 3.23673 10.7633 2.42188Z" fill="#F5C85C"/>
</svg>
