<svg width="20" height="17" viewBox="0 0 20 17" fill="none" xmlns="http://www.w3.org/2000/svg">
<path d="M4.375 15.9375C4.375 16.1229 4.32002 16.3042 4.217 16.4583C4.11399 16.6125 3.96757 16.7327 3.79627 16.8036C3.62496 16.8746 3.43646 16.8932 3.2546 16.857C3.07275 16.8208 2.9057 16.7315 2.77459 16.6004C2.64348 16.4693 2.55419 16.3023 2.51801 16.1204C2.48184 15.9385 2.50041 15.75 2.57136 15.5787C2.64232 15.4074 2.76248 15.261 2.91665 15.158C3.07082 15.055 3.25208 15 3.4375 15C3.68614 15 3.9246 15.0988 4.10041 15.2746C4.27623 15.4504 4.375 15.6889 4.375 15.9375ZM5.9375 12.5C5.75208 12.5 5.57082 12.555 5.41665 12.658C5.26248 12.761 5.14232 12.9074 5.07136 13.0787C5.00041 13.25 4.98184 13.4385 5.01801 13.6204C5.05419 13.8023 5.14348 13.9693 5.27459 14.1004C5.4057 14.2315 5.57275 14.3208 5.7546 14.357C5.93646 14.3932 6.12496 14.3746 6.29627 14.3036C6.46757 14.2327 6.61399 14.1125 6.717 13.9583C6.82002 13.8042 6.875 13.6229 6.875 13.4375C6.875 13.1889 6.77623 12.9504 6.60041 12.7746C6.4246 12.5988 6.18614 12.5 5.9375 12.5ZM0.9375 12.5C0.75208 12.5 0.570824 12.555 0.416653 12.658C0.262482 12.761 0.142321 12.9074 0.0713634 13.0787C0.000406206 13.25 -0.0181594 13.4385 0.0180142 13.6204C0.0541879 13.8023 0.143476 13.9693 0.274588 14.1004C0.4057 14.2315 0.572746 14.3208 0.754603 14.357C0.93646 14.3932 1.12496 14.3746 1.29627 14.3036C1.46757 14.2327 1.61399 14.1125 1.717 13.9583C1.82002 13.8042 1.875 13.6229 1.875 13.4375C1.875 13.1889 1.77623 12.9504 1.60041 12.7746C1.4246 12.5988 1.18614 12.5 0.9375 12.5ZM3.4375 10C3.25208 10 3.07082 10.055 2.91665 10.158C2.76248 10.261 2.64232 10.4074 2.57136 10.5787C2.50041 10.75 2.48184 10.9385 2.51801 11.1204C2.55419 11.3023 2.64348 11.4693 2.77459 11.6004C2.9057 11.7315 3.07275 11.8208 3.2546 11.857C3.43646 11.8932 3.62496 11.8746 3.79627 11.8036C3.96757 11.7327 4.11399 11.6125 4.217 11.4583C4.32002 11.3042 4.375 11.1229 4.375 10.9375C4.375 10.6889 4.27623 10.4504 4.10041 10.2746C3.9246 10.0988 3.68614 10 3.4375 10ZM19.375 0.625C19.375 0.790761 19.3092 0.949732 19.1919 1.06694C19.0747 1.18415 18.9158 1.25 18.75 1.25H16.5086L14.3328 3.42656L12.6406 13.332C12.6025 13.5583 12.5029 13.7698 12.3526 13.9432C12.2023 14.1166 12.0072 14.2453 11.7886 14.3152C11.57 14.3851 11.3364 14.3934 11.1134 14.3394C10.8903 14.2853 10.6865 14.1708 10.5242 14.0086L2.86797 6.35234C2.70547 6.18992 2.59088 5.98585 2.53679 5.76255C2.4827 5.53925 2.4912 5.30536 2.56136 5.08658C2.63151 4.8678 2.76061 4.67258 2.93447 4.52238C3.10833 4.37218 3.32022 4.2728 3.54688 4.23516L13.4484 2.54219L15.8078 0.182813C15.8659 0.124791 15.9348 0.0787824 16.0107 0.0474148C16.0866 0.0160472 16.1679 -6.43662e-05 16.25 1.93251e-07H18.75C18.9158 1.93251e-07 19.0747 0.0658483 19.1919 0.183059C19.3092 0.300269 19.375 0.45924 19.375 0.625ZM12.9852 3.88984L3.75 5.46875L11.4062 13.125L12.9852 3.88984Z" fill="#F5C85C"/>
</svg>
