<svg width="14" height="17" viewBox="0 0 14 17" fill="none" xmlns="http://www.w3.org/2000/svg">
<path d="M11.25 6.3125V5.625C11.25 4.96196 10.9866 4.32607 10.5178 3.85723C10.0489 3.38839 9.41304 3.125 8.75 3.125H7.5V1.25H10C10.1658 1.25 10.3247 1.31585 10.4419 1.43306C10.5592 1.55027 10.625 1.70924 10.625 1.875C10.625 2.04076 10.6908 2.19973 10.8081 2.31694C10.9253 2.43415 11.0842 2.5 11.25 2.5C11.4158 2.5 11.5747 2.43415 11.6919 2.31694C11.8092 2.19973 11.875 2.04076 11.875 1.875C11.875 1.37772 11.6775 0.900806 11.3258 0.549175C10.9742 0.197544 10.4973 0 10 0H5C4.83424 0 4.67527 0.065848 4.55806 0.183058C4.44085 0.300268 4.375 0.45924 4.375 0.625C4.375 0.79076 4.44085 0.949732 4.55806 1.06694C4.67527 1.18415 4.83424 1.25 5 1.25H6.25V3.125H5C4.33696 3.125 3.70107 3.38839 3.23223 3.85723C2.76339 4.32607 2.5 4.96196 2.5 5.625V6.3125C1.79462 6.45753 1.16081 6.84133 0.705414 7.39919C0.250016 7.95705 0.000879821 8.65486 0 9.375V15.625C0 15.9565 0.131696 16.2745 0.366116 16.5089C0.600537 16.7433 0.918479 16.875 1.25 16.875H12.5C12.8315 16.875 13.1495 16.7433 13.3839 16.5089C13.6183 16.2745 13.75 15.9565 13.75 15.625V9.375C13.7491 8.65486 13.5 7.95705 13.0446 7.39919C12.5892 6.84133 11.9554 6.45753 11.25 6.3125ZM5 4.375H8.75C9.08152 4.375 9.39946 4.5067 9.63388 4.74112C9.8683 4.97554 10 5.29348 10 5.625V6.25H3.75V5.625C3.75 5.29348 3.8817 4.97554 4.11612 4.74112C4.35054 4.5067 4.66848 4.375 5 4.375ZM12.5 15.625H1.25V9.375C1.25 8.87772 1.44754 8.40081 1.79917 8.04917C2.15081 7.69754 2.62772 7.5 3.125 7.5H10.625C11.1223 7.5 11.5992 7.69754 11.9508 8.04917C12.3025 8.40081 12.5 8.87772 12.5 9.375V15.625Z" fill="#F5C85C"/>
</svg>
