<svg width="18" height="17" viewBox="0 0 18 17" fill="none" xmlns="http://www.w3.org/2000/svg">
<path d="M1.25293 7.5C1.25293 7.33424 1.31878 7.17527 1.43599 7.05806C1.5532 6.94085 1.71217 6.875 1.87793 6.875H3.12793C3.29369 6.875 3.45267 6.94085 3.56988 7.05806C3.68709 7.17527 3.75293 7.33424 3.75293 7.5C3.75293 7.66576 3.68709 7.82473 3.56988 7.94194C3.45267 8.05915 3.29369 8.125 3.12793 8.125H1.87793C1.71217 8.125 1.5532 8.05915 1.43599 7.94194C1.31878 7.82473 1.25293 7.66576 1.25293 7.5ZM4.3334 3.96484C4.45068 4.08212 4.60974 4.148 4.77559 4.148C4.94144 4.148 5.1005 4.08212 5.21778 3.96484C5.33505 3.84757 5.40094 3.68851 5.40094 3.52266C5.40094 3.3568 5.33505 3.19774 5.21778 3.08047L4.3334 2.19687C4.21524 2.08461 4.0579 2.02295 3.89492 2.02504C3.73194 2.02712 3.57623 2.09279 3.46098 2.20804C3.34573 2.3233 3.28006 2.47901 3.27797 2.64199C3.27588 2.80496 3.33755 2.96231 3.44981 3.08047L4.3334 3.96484ZM8.75293 2.5C8.91869 2.5 9.07767 2.43415 9.19488 2.31694C9.31209 2.19973 9.37793 2.04076 9.37793 1.875V0.625C9.37793 0.45924 9.31209 0.300268 9.19488 0.183058C9.07767 0.065848 8.91869 0 8.75293 0C8.58717 0 8.4282 0.065848 8.31099 0.183058C8.19378 0.300268 8.12793 0.45924 8.12793 0.625V1.875C8.12793 2.04076 8.19378 2.19973 8.31099 2.31694C8.4282 2.43415 8.58717 2.5 8.75293 2.5ZM12.7303 4.14766C12.8124 4.14772 12.8937 4.13161 12.9696 4.10024C13.0454 4.06887 13.1144 4.02287 13.1725 3.96484L14.0561 3.08047C14.1683 2.96231 14.23 2.80496 14.2279 2.64199C14.2258 2.47901 14.1601 2.3233 14.0449 2.20804C13.9296 2.09279 13.7739 2.02712 13.6109 2.02504C13.448 2.02295 13.2906 2.08461 13.1725 2.19687L12.2881 3.08047C12.2006 3.16788 12.141 3.27929 12.1168 3.40059C12.0927 3.52189 12.105 3.64764 12.1524 3.7619C12.1997 3.87616 12.2799 3.97381 12.3828 4.04248C12.4857 4.11115 12.6066 4.14775 12.7303 4.14766ZM13.7529 7.5C13.7529 7.66576 13.8188 7.82473 13.936 7.94194C14.0532 8.05915 14.2122 8.125 14.3779 8.125H15.6279C15.7937 8.125 15.9527 8.05915 16.0699 7.94194C16.1871 7.82473 16.2529 7.66576 16.2529 7.5C16.2529 7.33424 16.1871 7.17527 16.0699 7.05806C15.9527 6.94085 15.7937 6.875 15.6279 6.875H14.3779C14.2122 6.875 14.0532 6.94085 13.936 7.05806C13.8188 7.17527 13.7529 7.33424 13.7529 7.5ZM5.62793 8.125C5.79369 8.125 5.95267 8.05915 6.06988 7.94194C6.18709 7.82473 6.25293 7.66576 6.25293 7.5C6.25293 6.83696 6.51633 6.20107 6.98517 5.73223C7.45401 5.26339 8.08989 5 8.75293 5C9.41597 5 10.0519 5.26339 10.5207 5.73223C10.9895 6.20107 11.2529 6.83696 11.2529 7.5C11.2529 7.66576 11.3188 7.82473 11.436 7.94194C11.5532 8.05915 11.7122 8.125 11.8779 8.125C12.0437 8.125 12.2027 8.05915 12.3199 7.94194C12.4371 7.82473 12.5029 7.66576 12.5029 7.5C12.5029 6.50544 12.1078 5.55161 11.4046 4.84835C10.7013 4.14509 9.7475 3.75 8.75293 3.75C7.75837 3.75 6.80454 4.14509 6.10128 4.84835C5.39802 5.55161 5.00293 6.50544 5.00293 7.5C5.00293 7.66576 5.06878 7.82473 5.18599 7.94194C5.3032 8.05915 5.46217 8.125 5.62793 8.125ZM17.4178 16.5625C17.363 16.6573 17.2844 16.7361 17.1896 16.7909C17.0949 16.8458 16.9874 16.8748 16.8779 16.875H0.627934C0.518433 16.8755 0.410719 16.8472 0.315578 16.793C0.220437 16.7388 0.141209 16.6606 0.0858273 16.5661C0.0304459 16.4716 0.000855184 16.3643 1.82599e-05 16.2548C-0.000818664 16.1453 0.0271276 16.0375 0.0810586 15.9422L3.25996 10.3172C3.31469 10.2205 3.39422 10.1401 3.49034 10.0843C3.58647 10.0286 3.69572 9.99948 3.80684 10H13.6982C13.8094 9.99948 13.9186 10.0286 14.0147 10.0843C14.1109 10.1401 14.1904 10.2205 14.2451 10.3172L17.424 15.9422C17.4771 16.0372 17.5044 16.1444 17.5033 16.2532C17.5022 16.362 17.4727 16.4686 17.4178 16.5625ZM13.3342 11.25H11.4303L11.7022 12.5H14.0404L13.3342 11.25ZM10.4232 12.5L10.1514 11.25H7.3545L7.08262 12.5H10.4232ZM6.81075 13.75L6.40372 15.625H11.1022L10.6951 13.75H6.81075ZM3.46543 12.5H5.80371L6.07559 11.25H4.17168L3.46543 12.5ZM1.69903 15.625H5.12403L5.53184 13.75H2.75918L1.69903 15.625ZM15.8068 15.625L14.7467 13.75H11.974L12.3818 15.625H15.8068Z" fill="#F5C85C"/>
</svg>
