<svg width="16" height="12" viewBox="0 0 16 12" fill="none" xmlns="http://www.w3.org/2000/svg">
<path d="M15.4735 1.82625L12.2385 0.0625C12.1652 0.0219435 12.0829 0.000452289 11.9991 0H9.99914C9.86654 0 9.73936 0.0526785 9.64559 0.146447C9.55182 0.240215 9.49914 0.367392 9.49914 0.5C9.49914 0.897825 9.34111 1.27936 9.0598 1.56066C8.7785 1.84196 8.39697 2 7.99915 2C7.60132 2 7.21979 1.84196 6.93848 1.56066C6.65718 1.27936 6.49915 0.897825 6.49915 0.5C6.49915 0.367392 6.44647 0.240215 6.3527 0.146447C6.25893 0.0526785 6.13175 0 5.99915 0H3.99915C3.91517 0.000347542 3.83263 0.0218421 3.75915 0.0625L0.52477 1.82625C0.294208 1.9481 0.121374 2.1564 0.0441639 2.40549C-0.0330458 2.65457 -0.00832883 2.92411 0.112895 3.155L1.31727 5.45563C1.40484 5.62103 1.53611 5.75925 1.69678 5.85523C1.85745 5.95121 2.04137 6.00129 2.22852 6H3.49915V11C3.49915 11.2652 3.6045 11.5196 3.79204 11.7071C3.97957 11.8946 4.23393 12 4.49915 12H11.4991C11.7644 12 12.0187 11.8946 12.2063 11.7071C12.3938 11.5196 12.4991 11.2652 12.4991 11V6H13.7704C13.9575 6.00129 14.1415 5.95121 14.3021 5.85523C14.4628 5.75925 14.5941 5.62103 14.6816 5.45563L15.886 3.155C16.0072 2.92403 16.0318 2.65444 15.9545 2.40534C15.8772 2.15624 15.7042 1.94799 15.4735 1.82625ZM2.22852 5C2.21928 5.00044 2.21019 4.99755 2.20289 4.99188L1.00477 2.70375L3.49915 1.3425V5H2.22852ZM11.4991 11H4.49915V1H5.54915C5.6645 1.56447 5.97129 2.07178 6.4176 2.43611C6.86392 2.80044 7.42238 2.99944 7.99852 2.99944C8.57466 2.99944 9.13312 2.80044 9.57944 2.43611C10.0258 2.07178 10.3325 1.56447 10.4479 1H11.4991V11ZM13.796 4.99125C13.7926 4.99437 13.7885 4.99675 13.7841 4.99825C13.7797 4.99976 13.775 5.00035 13.7704 5H12.4991V1.3425L14.9941 2.70375L13.796 4.99125Z" fill="#F5C85C"/>
</svg>
